<?xml version="1.0" encoding="utf-8"?>
<!-- Uploaded to: SVG Repo, www.svgrepo.com, Generator: SVG Repo Mixer Tools -->
<svg width="800px" height="800px" viewBox="0 0 1024 1024" class="icon"  version="1.1" xmlns="http://www.w3.org/2000/svg"><path d="M396.434286 523.702857h413.988571c-32.182857 54.125714-52.662857 49.737143-207.725714 49.737143s-174.08 5.851429-206.262857-49.737143z" fill="#606366" /><path d="M664.137143 583.68H541.257143c-102.4 0-125.805714-4.388571-155.062857-54.125714-1.462857-2.925714-1.462857-7.314286 0-10.24s5.851429-5.851429 8.777143-5.851429h413.988571c4.388571 0 7.314286 1.462857 8.777143 5.851429 1.462857 2.925714 1.462857 7.314286 0 10.24-29.257143 51.2-51.2 54.125714-153.6 54.125714z m-62.902857-19.017143h61.44c84.845714 0 106.788571-2.925714 127.268571-29.257143H415.451429c19.017143 26.331429 40.96 29.257143 127.268571 29.257143h58.514286z" fill="#141515" /><path d="M355.474286 133.12h55.588571v427.154286h-55.588571z" fill="#EDA127" /><path d="M411.062857 569.051429h-55.588571c-5.851429 0-10.24-4.388571-10.24-10.24V131.657143c0-5.851429 4.388571-10.24 10.24-10.24h55.588571c5.851429 0 10.24 4.388571 10.24 10.24v427.154286c0 7.314286-5.851429 10.24-10.24 10.24z m-46.811428-19.017143h35.108571V143.36h-35.108571v406.674286z" fill="#141515" /><path d="M381.805714 185.782857c43.885714 0 78.994286-35.108571 78.994286-78.994286s-35.108571-78.994286-78.994286-78.994285-78.994286 35.108571-78.994285 78.994285c1.462857 43.885714 35.108571 78.994286 78.994285 78.994286z" fill="#EDA127" /><path d="M381.805714 198.948571c-49.737143 0-89.234286-39.497143-89.234285-89.234285s39.497143-89.234286 89.234285-89.234286c49.737143 0 89.234286 39.497143 89.234286 89.234286 1.462857 46.811429-38.034286 89.234286-89.234286 89.234285z m0-159.451428c-38.034286 0-68.754286 30.72-68.754285 68.754286s30.72 68.754286 68.754285 68.754285 68.754286-30.72 68.754286-68.754285c1.462857-39.497143-29.257143-68.754286-68.754286-68.754286z" fill="#141515" /><path d="M71.68 273.554286c-4.388571 0-7.314286-1.462857-8.777143-5.851429-2.925714-5.851429 0-11.702857 4.388572-14.628571L381.805714 96.548571c5.851429-2.925714 11.702857 0 14.628572 4.388572 2.925714 5.851429 0 11.702857-4.388572 14.628571L77.531429 272.091429c-2.925714 0-5.851429 1.462857-5.851429 1.462857zM92.16 450.56c-20.48 0-38.034286-17.554286-38.034286-38.034286 0-17.554286 11.702857-32.182857 27.794286-36.571428v-86.308572c0-5.851429 4.388571-10.24 10.24-10.24s10.24 4.388571 10.24 10.24v95.085715c0 5.851429-4.388571 10.24-10.24 10.24-8.777143 0-17.554286 7.314286-17.554286 17.554285s7.314286 17.554286 17.554286 17.554286 17.554286-7.314286 17.554286-17.554286c0-5.851429 4.388571-10.24 10.24-10.24s10.24 4.388571 10.24 10.24c0 21.942857-19.017143 38.034286-38.034286 38.034286z" fill="#141515" /><path d="M871.862857 301.348571h59.977143v163.84h-59.977143z" fill="#FEFEFE" /><path d="M930.377143 476.891429h-59.977143c-5.851429 0-10.24-4.388571-10.24-10.24V301.348571c0-5.851429 4.388571-10.24 10.24-10.24h59.977143c5.851429 0 10.24 4.388571 10.24 10.24v163.84c1.462857 5.851429-2.925714 11.702857-10.24 11.702858z m-46.811429-20.48H921.6v-143.36h-38.034286v143.36z" fill="#141515" /><path d="M930.377143 368.64h59.977143v95.085714h-59.977143z" fill="#EEECF6" /><path d="M991.817143 476.891429h-59.977143c-5.851429 0-10.24-4.388571-10.24-10.24v-95.085715c0-5.851429 4.388571-10.24 10.24-10.24h59.977143c5.851429 0 10.24 4.388571 10.24 10.24v95.085715c-1.462857 4.388571-5.851429 10.24-10.24 10.24z m-49.737143-20.48H980.114286V380.342857h-38.034286v76.068572zM898.194286 310.125714c-5.851429 0-10.24-4.388571-10.24-10.24V204.8c0-5.851429 4.388571-10.24 10.24-10.24s10.24 4.388571 10.24 10.24v95.085714c0 4.388571-2.925714 10.24-10.24 10.24z" fill="#141515" /><path d="M381.805714 106.788571m-35.108571 0a35.108571 35.108571 0 1 0 70.217143 0 35.108571 35.108571 0 1 0-70.217143 0Z" fill="#FAD311" /><path d="M381.805714 152.137143C356.937143 152.137143 336.457143 131.657143 336.457143 106.788571s20.48-45.348571 45.348571-45.348571c24.868571 0 45.348571 20.48 45.348572 45.348571 1.462857 26.331429-19.017143 45.348571-45.348572 45.348572z m0-68.754286c-13.165714 0-24.868571 10.24-24.868571 24.868572 0 13.165714 10.24 24.868571 24.868571 24.868571 13.165714 0 24.868571-10.24 24.868572-24.868571s-10.24-24.868571-24.868572-24.868572z" fill="#141515" /><path d="M437.394286 456.411429h137.508571v67.291428h-137.508571z" fill="#E9606E" /><path d="M571.977143 532.48h-136.045714c-5.851429 0-10.24-4.388571-10.24-10.24v-67.291429c0-5.851429 4.388571-10.24 10.24-10.24h137.508571c5.851429 0 10.24 4.388571 10.24 10.24v67.291429c0 7.314286-4.388571 10.24-11.702857 10.24z m-124.342857-19.017143h115.565714V468.114286h-115.565714v45.348571z" fill="#141515" /><path d="M571.977143 456.411429h137.508571v67.291428h-137.508571z" fill="#B2D577" /><path d="M721.188571 532.48H563.2v-87.771429h157.988571v87.771429z m-137.508571-19.017143h115.565714V468.114286h-115.565714v45.348571z" fill="#141515" /><path d="M708.022857 456.411429h137.508572v67.291428h-137.508572z" fill="#7ADCFF" /><path d="M845.531429 532.48h-137.508572c-5.851429 0-10.24-4.388571-10.24-10.24v-67.291429c0-5.851429 4.388571-10.24 10.24-10.24h137.508572c5.851429 0 10.24 4.388571 10.24 10.24v67.291429c-1.462857 7.314286-5.851429 10.24-10.24 10.24z m-127.268572-19.017143H833.828571V468.114286h-115.565714v45.348571z" fill="#141515" /><path d="M437.394286 390.582857h137.508571v67.291429h-137.508571z" fill="#EEECF6" /><path d="M571.977143 466.651429h-136.045714c-5.851429 0-10.24-4.388571-10.24-10.24v-67.291429c0-5.851429 4.388571-10.24 10.24-10.24h137.508571c5.851429 0 10.24 4.388571 10.24 10.24v67.291429c0 5.851429-4.388571 10.24-11.702857 10.24z m-124.342857-21.942858h115.565714v-45.348571h-115.565714v45.348571z" fill="#141515" /><path d="M571.977143 390.582857h137.508571v67.291429h-137.508571z" fill="#EC748B" /><path d="M710.948571 466.651429h-137.508571c-5.851429 0-10.24-4.388571-10.24-10.24v-67.291429c0-5.851429 4.388571-10.24 10.24-10.24h137.508571c5.851429 0 10.24 4.388571 10.24 10.24v67.291429c0 5.851429-5.851429 10.24-10.24 10.24z m-127.268571-21.942858h115.565714v-45.348571h-115.565714v45.348571z" fill="#141515" /><path d="M708.022857 390.582857h137.508572v67.291429h-137.508572z" fill="#ED9423" /><path d="M845.531429 466.651429h-137.508572c-5.851429 0-10.24-4.388571-10.24-10.24v-67.291429c0-5.851429 4.388571-10.24 10.24-10.24h137.508572c5.851429 0 10.24 4.388571 10.24 10.24v67.291429c-1.462857 5.851429-5.851429 10.24-10.24 10.24z m-127.268572-21.942858H833.828571v-45.348571h-115.565714v45.348571z" fill="#141515" /><path d="M571.977143 320.365714h137.508571v67.291429h-137.508571z" fill="#FAD311" /><path d="M710.948571 397.897143h-137.508571c-5.851429 0-10.24-4.388571-10.24-10.24v-67.291429c0-5.851429 4.388571-10.24 10.24-10.24h137.508571c5.851429 0 10.24 4.388571 10.24 10.24v67.291429c0 5.851429-5.851429 10.24-10.24 10.24z m-127.268571-20.48h115.565714v-45.348572h-115.565714v45.348572z" fill="#141515" /><path d="M708.022857 320.365714h137.508572v67.291429h-137.508572z" fill="#71A44A" /><path d="M854.308571 397.897143H696.32v-87.771429h157.988571v87.771429z m-136.045714-20.48H833.828571v-45.348572h-115.565714v45.348572z" fill="#141515" /><path d="M571.977143 251.611429h137.508571v67.291428h-137.508571z" fill="#8F7EB1" /><path d="M721.188571 330.605714H563.2v-87.771428h157.988571v87.771428z m-137.508571-20.48h115.565714V263.314286h-115.565714v46.811428z" fill="#141515" /><path d="M19.017143 466.651429h336.457143l2.925714 5.851428c59.977143 108.251429 42.422857 100.937143 236.982857 100.937143s177.005714 7.314286 236.982857-100.937143l2.925715-5.851428h171.154285l-73.142857 406.674285c-4.388571 26.331429-21.942857 48.274286-49.737143 48.274286H314.514286c-130.194286 0-203.337143-106.788571-235.52-228.205714L19.017143 466.651429z" fill="#8F7EB1" /><path d="M883.565714 931.84h-570.514285c-117.028571 0-206.262857-86.308571-245.76-235.52L5.851429 454.948571h355.474285l16.091429 30.72c40.96 74.605714 40.96 76.068571 156.525714 76.068572h122.88c114.102857 0 115.565714-1.462857 156.525714-76.068572l16.091429-30.72h190.171429l-76.068572 418.377143c-5.851429 36.571429-30.72 58.514286-59.977143 58.514286z m-852.845714-453.485714l55.588571 215.04c17.554286 65.828571 73.142857 219.428571 225.28 219.428571h569.051429c24.868571 0 36.571429-21.942857 39.497143-39.497143l71.68-394.971428H839.68l-10.24 19.017143c-43.885714 80.457143-49.737143 87.771429-174.08 87.771428h-122.88c-124.342857 0-130.194286-5.851429-174.08-87.771428l-10.24-19.017143H30.72z" fill="#141515" /><path d="M977.188571 633.417143l-13.165714 77.531428h-526.628571c-11.702857 0-20.48-8.777143-20.48-20.48v-36.571428c0-11.702857 8.777143-20.48 20.48-20.48h539.794285z" fill="#D497C1" /><path d="M971.337143 721.188571H437.394286c-17.554286 0-30.72-13.165714-30.72-30.72v-36.571428c0-17.554286 13.165714-30.72 30.72-30.72h552.96l-19.017143 98.011428z m-533.942857-76.068571c-5.851429 0-10.24 4.388571-10.24 10.24v36.571429c0 5.851429 4.388571 10.24 10.24 10.24h517.851428l10.24-57.051429H437.394286z" fill="#141515" /><path d="M276.48 664.137143m-62.902857 0a62.902857 62.902857 0 1 0 125.805714 0 62.902857 62.902857 0 1 0-125.805714 0Z" fill="#90CED9" /><path d="M276.48 737.28c-40.96 0-73.142857-32.182857-73.142857-73.142857s32.182857-73.142857 73.142857-73.142857 73.142857 32.182857 73.142857 73.142857-33.645714 73.142857-73.142857 73.142857z m0-125.805714c-29.257143 0-52.662857 23.405714-52.662857 52.662857s23.405714 52.662857 52.662857 52.662857 52.662857-23.405714 52.662857-52.662857-23.405714-52.662857-52.662857-52.662857z" fill="#141515" /><path d="M92.16 326.217143m-24.868571 0a24.868571 24.868571 0 1 0 49.737142 0 24.868571 24.868571 0 1 0-49.737142 0Z" fill="#FAD311" /><path d="M92.16 361.325714c-19.017143 0-35.108571-16.091429-35.108571-35.108571s16.091429-35.108571 35.108571-35.108572 35.108571 16.091429 35.108571 35.108572c-1.462857 20.48-16.091429 35.108571-35.108571 35.108571z m0-48.274285c-7.314286 0-13.165714 5.851429-13.165714 13.165714s5.851429 13.165714 13.165714 13.165714 13.165714-5.851429 13.165714-13.165714c-1.462857-7.314286-5.851429-13.165714-13.165714-13.165714z" fill="#141515" /><path d="M42.422857 257.462857h311.588572v36.571429H42.422857z" fill="#FAD311" /><path d="M355.474286 302.811429H42.422857c-5.851429 0-10.24-4.388571-10.24-10.24v-36.571429c0-5.851429 4.388571-10.24 10.24-10.24h311.588572c5.851429 0 10.24 4.388571 10.24 10.24V292.571429c0 5.851429-4.388571 10.24-8.777143 10.24zM52.662857 282.331429h291.108572v-16.091429H52.662857v16.091429z" fill="#141515" /><path d="M52.662857 860.16c1.462857 26.331429 30.72 48.274286 67.291429 48.274286 35.108571 0 64.365714-19.017143 67.291428-43.885715 2.925714 24.868571 32.182857 43.885714 67.291429 43.885715 35.108571 0 64.365714-19.017143 67.291428-43.885715 2.925714 24.868571 32.182857 43.885714 67.291429 43.885715 35.108571 0 64.365714-19.017143 67.291429-43.885715 2.925714 24.868571 32.182857 43.885714 67.291428 43.885715 35.108571 0 64.365714-19.017143 67.291429-43.885715 2.925714 24.868571 32.182857 43.885714 67.291428 43.885715 35.108571 0 64.365714-19.017143 67.291429-43.885715 2.925714 24.868571 32.182857 43.885714 67.291428 43.885715 35.108571 0 64.365714-19.017143 67.291429-43.885715 2.925714 24.868571 32.182857 43.885714 67.291429 43.885715 36.571429 0 65.828571-21.942857 67.291428-48.274286h2.925714v133.12H51.2v-133.12h1.462857z" fill="#6ABAD6" /><path d="M996.205714 1004.982857H49.737143c-5.851429 0-10.24-4.388571-10.24-10.24v-133.12c0-5.851429 4.388571-10.24 10.24-10.24h2.925714c5.851429 0 10.24 4.388571 10.24 10.24 0 20.48 26.331429 38.034286 57.051429 38.034286 29.257143 0 54.125714-16.091429 57.051428-35.108572 0-5.851429 4.388571-8.777143 10.24-8.777142 5.851429 0 10.24 4.388571 10.24 8.777142 2.925714 20.48 27.794286 35.108571 57.051429 35.108572s54.125714-16.091429 57.051428-35.108572c0-5.851429 4.388571-8.777143 10.24-8.777142s10.24 4.388571 10.24 8.777142c2.925714 20.48 27.794286 35.108571 57.051429 35.108572s54.125714-16.091429 57.051429-35.108572c0-5.851429 4.388571-8.777143 10.24-8.777142s10.24 4.388571 10.24 8.777142c2.925714 20.48 27.794286 35.108571 57.051428 35.108572s54.125714-16.091429 57.051429-35.108572c0-5.851429 4.388571-8.777143 10.24-8.777142 5.851429 0 10.24 4.388571 10.24 8.777142 2.925714 20.48 27.794286 35.108571 57.051428 35.108572s54.125714-16.091429 57.051429-35.108572c0-5.851429 4.388571-8.777143 10.24-8.777142s10.24 4.388571 10.24 8.777142c2.925714 20.48 27.794286 35.108571 57.051428 35.108572s54.125714-16.091429 57.051429-35.108572c0-5.851429 4.388571-8.777143 10.24-8.777142 5.851429 0 10.24 4.388571 10.24 8.777142 2.925714 20.48 27.794286 35.108571 57.051429 35.108572 30.72 0 55.588571-17.554286 57.051428-38.034286 0-5.851429 4.388571-10.24 10.24-10.24h2.925714c5.851429 0 10.24 4.388571 10.24 10.24V994.742857c0 4.388571-4.388571 10.24-11.702857 10.24z m-936.228571-21.942857h925.988571v-86.308571c-14.628571 13.165714-36.571429 21.942857-59.977143 21.942857-29.257143 0-54.125714-11.702857-67.291428-29.257143-13.165714 17.554286-38.034286 29.257143-67.291429 29.257143s-54.125714-11.702857-67.291428-29.257143c-13.165714 17.554286-38.034286 29.257143-67.291429 29.257143s-54.125714-11.702857-67.291428-29.257143c-13.165714 17.554286-38.034286 29.257143-67.291429 29.257143s-54.125714-11.702857-67.291429-29.257143c-13.165714 17.554286-38.034286 29.257143-67.291428 29.257143s-54.125714-11.702857-67.291429-29.257143c-13.165714 17.554286-38.034286 29.257143-67.291428 29.257143s-54.125714-11.702857-67.291429-29.257143c-13.165714 17.554286-38.034286 29.257143-67.291428 29.257143-24.868571 0-46.811429-8.777143-59.977143-21.942857l1.462857 86.308571z" fill="#141515" /></svg>